The Horde 2010 DVDRiP XViD AC3-LEGi0N 

Format: AVI
File size: 1.37 GiB
Duration: 1h 36mn
Overall bit rate: 2 026 Kbps
IMDb Rating: 6/10
Genre: Action | Horror | Thriller
Release: 2009
Subs: N/A
Language: English
IMDb Link: http://www.imdb.com/title/tt1183276/
Trailer: http://www.imdb.com/video/screenplay/vi2999453209/
Source: [Video] DVDR-FiCeLLo | [Audio] DVDR-FiCeLLo
Sample: Yes Video
FourCC: XViD
Matrix: MPEG
BVOP: Yes
QPel: No
GMC: No
Bit rate: 1 572 Kbps
Resolution: 720X304
DAR: 1 592 Kbps
FPS: 23.976 fps
Bit depth: 24 bits
QF: 0.300
Stream size: 1.06 GiB Audio
Format: AC3-5.1
Bit rate: 448 Kbps
Channels: 6 channels
Sampling rate: 48.0 KHz
Bit rate mode: Constant
Stream size: 310 MiB

An end of the world battle between gangsters, cops and zombies Tagline:
Pain Brings Out The Truth In Us All ... How Much Truth Can You Stand?

Claude Perron ... Aurore
Jean-Pierre Martins ... Ouessem
Eriq Ebouaney ... Adewale
Aur lien Recoing ... Jimenez
Antoine Oppenheim ... Tony
Jo Prestia ... Greco
Yves Pignot ... Ren 